/* XPM */
static char *d39dd40eef7d43ba9616dc19bdb0d61a350S2rziTED2Z8rf[] = {
/* columns rows colors chars-per-pixel */
"64 64 105 2 ",
"   c #090E39",
".  c #0B113D",
"X  c #0D1441",
"o  c #101745",
"O  c #111846",
"+  c #131B4C",
"@  c #171F51",
"#  c #172053",
"$  c #192154",
"%  c #1D265C",
"&  c #1F285E",
"*  c #20275B",
"=  c #22295D",
"-  c #222C64",
";  c #242E68",
":  c #293167",
">  c #26316A",
",  c #2A336C",
"<  c #2E3671",
"1  c #333B75",
"2  c #353F7A",
"3  c #383F7C",
"4  c #36407B",
"5  c #3C427E",
"6  c #3D4581",
"7  c #414784",
"8  c #414B86",
"9  c #454C8E",
"0  c #47528E",
"q  c #48528E",
"w  c #474D90",
"e  c #484F91",
"r  c #4C5294",
"t  c #4C5295",
"y  c #4E5396",
"u  c #4E5496",
"i  c #4E5497",
"p  c #4F5598",
"a  c #505895",
"s  c #515896",
"d  c #505A96",
"f  c #505598",
"g  c #515799",
"h  c #52589B",
"j  c #525A9B",
"k  c #535A9B",
"l  c #525C98",
"z  c #545E9B",
"x  c #535A9C",
"c  c #535B9C",
"v  c #545C9C",
"b  c #555F9C",
"n  c #555D9E",
"m  c #565D9E",
"M  c #575E9F",
"N  c #56609D",
"B  c #56619D",
"V  c #57619E",
"C  c #575FA0",
"Z  c #585FA0",
"A  c #5860A1",
"S  c #5A61A1",
"D  c #5B63A3",
"F  c #5C63A3",
"G  c #5C63A4",
"H  c #5C64A4",
"J  c #5F67A7",
"K  c #5E68A5",
"L  c #6068A7",
"P  c #6169A7",
"I  c #6067A8",
"U  c #626BA9",
"Y  c #626AAA",
"T  c #636CAB",
"R  c #646CAB",
"E  c #646CAC",
"W  c #656DAD",
"Q  c #656EAD",
"!  c #666EAD",
"~  c #666EAE",
"^  c #6670AE",
"/  c #6770AF",
"(  c #6870B0",
")  c #6972B1",
"_  c #6A73B2",
"`  c #6974B1",
"'  c #6B75B3",
"]  c #6C76B4",
"[  c #6C77B4",
"{  c #6D77B5",
"}  c #6D78B5",
"|  c #6E78B6",
" . c #6E79B7",
".. c #6F79B7",
"X. c #717CB7",
"o. c #747FB9",
"O. c #7580BA",
"+. c #8794C8",
"@. c #9BACD6",
"#. c #9DAFD8",
"$. c #B6CCEA",
"%. c #BDD4EE",
"&. c #C8DEF6",
"*. c #C9E1F6",
"=. c #CBE4F8",
/* pixels */
"' ' ' } { { I t t I { } { { ] ] } { { ) A e l Q { { { { } } } Y g t G { { { { { { { ) n e h / { { { [ [ { { { { T g e Z ) { { _ ",
"' ' / Q Q Q Z e e A Q Q Q Q Q Q Q Q Q R n e t S Q / Q W Q Q Q G t e n Q Q Q W W Q Q Y h 9 g J Q Q Q Q Q Q Q Q Q J u w l Q ) ) [ ",
"{ ) J n x x t 9 e t k k k k k n x x x g t 9 w g x x x x k a z f w 9 e x x h k x n n l t 9 t t l v x x x x n x l g e 9 t x J ) { ",
") Y n w w e e e e e e e e w w 9 e 9 t e e w w e e 9 9 e e e e e w w e e e e e w 9 9 w e w w e t w w w w w 9 t w w 9 w 9 w x Q { ",
"A n r 9 r g n n M M M V M g e e k V V M A A A A x t w g n n M M A A M M Z M h e w a C A C C A A A n t 9 t n N n n n z t 9 x Q { ",
"e e 9 9 n Y ) / / / Q / Q M e t F Q ) Q Q Q / / I t e x Q ~ / R ~ ~ Q R ( Q V t t A Q / / / Q / / K g w l T / / / / R x e x Q { ",
"g t w w n ) {  .' J N N n q 3 5 r N B B N n N N t 5 2 8 k B B B V V V B V n q 3 4 q v A n N N N N a 6 2 7 g Y ) X.{ ) n e t A I ",
"Q J g e n / } X.P q 2 2 2 : $ @ , 2 4 4 4 4 4 2 1 * @ : 2 4 2 2 2 2 2 2 5 2 , # $ , 4 4 2 2 2 3 4 1 = $ * 3 0 Y X.} Q Z w w e t ",
"{ Q g e n / Q Y a 1 & % % + X X $ & & & & & & & $ X . + $ & - % = & & & - $ @ X X @ & & & & & & - $ o . o % 1 a Y ) / n w 9 t t ",
"{ Q l e V / Y q 2 * O o . X   . X o o O + X + X X     . X + X o o O o o O o X     X O O o + X O X X .   . O & 1 r J / n r u A J ",
"} Q n e n Y l 2 % o . . . X . X X X . . . X X X X X X X X X . . . X X . X X X X X . . X X X X X X X . X . . O = 2 C Q A t l T ' ",
"{ Q x e t l 7 = o . . o $ # $ # $ + X . X @ @ $ $ $ # @ @ + X X + @ $ # @ $ @ @ + X X X @ @ @ @ @ $ $ $ X . o % 1 N / N w x Q } ",
"{ Q x e 9 9 1 # .   . # - - - - - & + . + - ; ; ; - - ; - @ X X % - ; - - - ; - % O X @ - - - - - - - - $ . O % 2 x Q n e n Q { ",
"{ Q x e t g 8 = O . X # - > > > ; - + X @ - > > > > > > > $ X + = > > ; > > > > & + X @ ; > , ; > > > - $ . o + : 9 C g w x Q ' ",
"{ Q x e n J a 1 # X X $ - > ; > ; - + X + - ; > ; ; ; > - $ X o % ; ; - ; ; ; ; & + X @ ; ; ; ; ; ; > - $ . . . $ 3 e e 9 n Q { ",
"Y A g e A / N 4 = + X # - > > - - $ o X + $ & $ % & & & % + X X @ % % & & & & & @ O X O $ & - & - ; > ; $ . . . $ 5 t e 9 l Q { ",
"t t 9 e M / N 4 % O X @ ; > > - @ X X X . X O O O O + o o . . . o O O O O O O O X . . X o o o $ - ; > - $ X X $ , t K l w x Q  .",
"t e 9 e Z Q N 2 % O X + & - - $ O . X X X X X X . . . . . o X X . X X X . . . . X X X o . . . o $ - - & + X o & 4 N T A w g Y Q ",
"G Z t e A Q n 4 & O . X + + + o . . + $ $ $ $ $ + .   o @ $ $ @ $ $ $ + O   . + $ $ $ $ $ + . . O + + + X . O % 4 N / A w w g h ",
"{ Y h e M Q N 4 % O . . X X X .   X @ - > - > , = @ O @ , , , , , , , , $ O + - , > - > - $ X . . X . X . . O % 4 N Q N w w w e ",
"| ~ x e A / V 4 - X X X + @ + + X X $ > ; ; 1 6 8 1 : 3 q r q q q q q 0 3 , < 8 8 1 ; ; > $ X . + + + + X X O - 4 N / Z w t h n ",
"{ Q n e M Q n 2 % X X @ - - - $ O X $ ; ; > 6 A Z t 8 g J Q Y Q T T R P g 8 t A N 6 > ; - $ o o $ - - - @ X X % 4 n Q C w h Y / ",
"{ Q x e l S q , @ X X $ - > ; & O X $ > 1 6 t H G p e l S Y Y I Y K P J x w u J A r 6 1 > $ o O & > > ; @ X X @ , r A x w l Q { ",
"{ Q x 9 e q 5 # X   X $ - > ; % O X $ , 6 N G l t 9 9 e r u t t t u t t w 9 9 t a J A 6 , $ . O & ; , - $ X   X # 2 e e w n Q { ",
"{ Q k w e t 3 $ X   X @ ; > ; % O . + - 6 J A e 9 e t t t t e t t r r r t t r 9 t G A 7 - + . O % ; > - @ X   . $ 5 t e 9 x Q { ",
"] Q k w l A q , + o X $ - > ; & O . . # < t l e e x J I G S G S A A F A J A x e w p t 1 + . . O = ; > - @ X X @ : q A l e l Q { ",
"{ Q x t N Q n 2 % o . $ - , ; % O .   O : 8 w 9 t G ) X.o.o.O.O.O.O.O.O.X.{ I t 9 e 7 : O .   O & ; > - # X o % 4 z R M e h Q { ",
"X.Q k 9 A / N 3 = o X $ - > ; & O . O $ 4 s x 9 t J X.+.@.#.@.@.@.#.#.@.+.X.G t e g a 2 $ O . O & ; , ; @ X o & 5 N / V e l W { ",
") Y g e Z Q N 2 & o X @ - ; ; % O . # > 0 K J t t A o.@.$.&.%.%.%.%.%.$.@.o.A r t J K 0 > @ X X # ; ; - @ X O & 4 n Q Z t g Q { ",
"G Z t e Z Q N 2 & o X O @ $ $ + X X $ , 0 T Y t t G o.#.%.&.*.&.&.&.*.&.@.o.G t p Y Q t , # X X @ # $ @ o . + % 2 N Q Z 9 n Q { ",
"t e 9 e Z ( n 2 & O     X X X X . X $ , 0 T Y u e A O.#.%.*.&.&.&.&.&.%.#.O.A r t J Q 0 , # X . X X X X . . O & 2 N Q Z e x Q { ",
"t t e e Z Q N 2 & o X X O + o X . X # > q T J u t G o.#.$.&.&.&.&.&.&.%.#.X.G t t J Q q , # X . X O O + X . o & 4 N Q Z e g A Y ",
"Y A u 9 C Q N 2 % O X @ % & & @ X X @ , q R P t t S O.@.%.&.&.&.&.&.&.%.@.O.A t t Y Y q : $ X X $ % & $ + . + & 2 B Q A e w t t ",
"} Q v t N Q N 4 % O X @ - > ; % O X @ , q R P t t S O.@.%.*.&.&.&.&.*.%.@.O.A t t P R q , @ X O % ; > - # X X & 2 B Q A e w w t ",
"} Q x e A ) n 4 & O X @ - > ; & O X @ , q T Y t t A o.@.%.=.*.&.&.&.*.%.@.o.P t t P R q , @ X O & > > ; @ X X & 2 C T A w t C G ",
"{ Q x e n R z 1 % O X @ - > - % O X @ : 0 T P u t J } @.$.&.%.%.%.%.%.$.@.o.A t t P T q , @ X O % ; > - $ X O % 2 B T A e h Y [ ",
"{ Q x e p x 9 : + X X @ - > ; % O X $ , q W I t t Z X.+.@.@.@.@.#.#.#.@.+.X.J t t Y Q q , $ X O % ; > - $ X + & 4 n / C e C T } ",
"{ Q x 9 w e 2 @     X @ - > ; % O X $ , q Y P t r I ] X.O.O.O.O.o.o.o.o.} } J t t I R q , $ X O % ; > - $ X X % 4 C Q C e x T [ ",
"} Q x e e p 5 & X X X @ ; > ; & O . + & 7 Z Z e e l I J A G A A G A Z Z G J l e e N n 6 & O . O % ; > - @ X X @ , q C g w x / [ ",
"} Q x e x K u < # X X @ - , ; & X . . O , 9 t 9 9 e t t t t t t t e t t t t e 9 9 t w , + . . O % > > ; $ X   X $ 3 t w w x / [ ",
"Q I g e n ) N 4 & X X + & & - @ O . . O - 4 w t t 9 9 e e p u t t t t t e 9 9 e t 9 3 - O . . O # & & % + X   X $ 5 t e 9 n Q { ",
"g t e e Z Q N 4 & @ . X X + + X . . + % - , 7 C Y p w l G Y P P I Y Y I x e g I M 8 < - % + . . O O + + X . X @ : q N x e x Q } ",
"e e 9 e A Q N 2 & X . X X X X . . X $ - - ; 6 N J 0 6 u Y W Y R Y Q Q I a 8 q G V 7 - - ; $ X . . X X X . . O & 4 n T N e f Y ) ",
"Z n e e A Q N 2 % + . X $ # @ + . X % > > > 2 8 8 < , 6 9 q q q q q q 9 3 : 1 8 7 1 ; ; > $ X . + @ # # X . O & 5 N / N e t x n ",
") Y h 9 V Q V 2 & X X @ - > - $ O X $ - ; ; > , - + O $ > < , > , , , > $ o @ - , , - ; - $ X O % - ; - @ X O % 2 N Q A 9 8 9 e ",
"{ Q n t Z / N 3 & O X $ - > > & O . + $ $ $ @ $ + . . X @ $ @ $ # # $ @ o . . + $ $ $ % $ + . O = ; > - # X o = 2 N Q A e t g x ",
"{ Q x e V / N 2 & O X $ - > > & O . . X X X X X X . . . X X X X . X X X . . . . X X X X X . . O & ; : - # X O & 2 N Q Z e x I Q ",
"{ Q x e l F t , $ X . $ - > - & $ X . . X X O + O O X + X X . . o o o o O O o o o O O . . . X @ - ; ; - # X o & 4 N ) x e x Q } ",
"{ Q x 9 w t 5 * .   . $ - , ; - = $ + . + $ & & % & % & % + X X @ % % % $ & & % & & $ + . X $ - - - > - $ X O - 1 A T C e C Q { ",
"{ Q n 9 r q 2 # .   X # - ; ; ; ; - + . + - > > - ; ; ; ; $ X O % ; > ; ; ; ; ; ; > - + X + - > ; ; > - @ X X $ 1 s Y x e x Q [ ",
"} Q x e g n 9 - @ . X @ - , : > > - + X @ - > > > > > , ; $ X + & ; > > > > > > , > - @ X + - > > ; > ; $ X . O & 6 l t 9 C Q [ ",
") R g e N T N 2 % o X @ - - - ; - & + X + - ; - - - - - - $ X X $ ; ; - - ; - - - - - + . + = - - - - - @ .   . $ 1 w 9 9 x Q [ ",
"A n e e Z ( N 4 % O X X @ @ @ @ $ + X . o $ $ $ $ @ @ $ @ +   X + @ $ @ @ $ @ $ $ $ + o . . + $ $ $ $ @ X . . O * 7 l t w x Q { ",
"e e 9 e Z ( N 4 & O . X X X X X X . . . . . . . X X X X X X X   X X X X . X X X X X X . . . o . X X X X . X O % 3 l Y n w x Q [ ",
"g t e 9 Z ~ P q 1 & O     . X + X + o o . . . X O O O X X O O O + X + X X     X + X O O o O o o     X X X X & 1 0 I / n w C Q { ",
"Q I g e n Q ) Y u 4 & O   O $ & & & & % + . X $ % & & & & & & & & & & % + X X $ & & & & & % = @ X X + % & - 1 l J [ / C w h Q { ",
"} Q x e n /  .} Y 0 1 = $ % 1 4 4 2 4 4 - $ * 1 4 2 4 4 4 2 2 2 3 1 4 1 ; @ % 1 4 4 2 4 2 2 4 , * @ : 2 2 4 q P { } / n e x J Y ",
"} / x e n ) X.} ' Y l 7 2 7 a N N N N l 8 2 5 t N V N n N V n N N C B l 9 4 5 0 N V N N N V V t 3 2 9 z N N P /  .} Q n w w t g ",
"{ Q x e x Y ) Q Q / Y x 9 g P / / / / Y z w t J ) / Q Q Q Q Q Q T / / T l w g K ) ~ Q Q Q ~ ~ S r w M Q / Q / / ) ) Q n 9 9 e e ",
"{ Q g 9 t n n n n N n t 9 t n n C C Z C g w t l N n Z Z Z Z Z Z A A A C t w t x A A Z n V Z A k e e l n A V M x n N h t 9 t n A ",
"' Q n w 9 9 w e e e e w 9 9 e e t 9 w 9 9 w 9 e r t w w e e e e e e e w e 9 w w e e w e t e e e 9 9 9 r e e e e e e e 9 w x Y [ ",
"{ Q J n t 9 w g x x x l n n x n h g t 9 e l n n l x x x g t 9 9 f x h l x n n x y e 9 t g x k k n n x l k k y e 9 t x x n J ) { ",
"' ' ) Y n e t J Q Q Q Q Q Q Q Q Q Y f 9 h Y Q Q Q Q Q Q W M e t Z Q Q Q Q Q Q Q Y t e n Y Q Q Q Q Q ~ Q ~ Q A e e A Q Q Q Q ' ' ",
"' ' { [ Z e g Q } } ] ] ] { { { { / l t C ( { { { } { { { G t y Y { X.{ { { { { Y g e Z ) { { ' { ] { { { { Y t t I { } { [ ' ' "
};
