/* XPM */
static char *c5b13e65718a482c82a8d1a735096004ft46Xlcw9kvEBBHW[] = {
/* columns rows colors chars-per-pixel */
"64 64 131 2 ",
"   c None",
".  c #040203",
"X  c #0B0507",
"o  c #0E040A",
"O  c #11050C",
"+  c #18070E",
"@  c #150A0C",
"#  c #190C0D",
"$  c #160610",
"%  c #1B0612",
"&  c #1D0C11",
"*  c #1F1010",
"=  c #210717",
"-  c #220C15",
";  c #230918",
":  c #2A0D1B",
">  c #241214",
",  c #291416",
"<  c #2C1816",
"1  c #271318",
"2  c #2D101C",
"3  c #2C1818",
"4  c #31131E",
"5  c #331A1B",
"6  c #391E1E",
"7  c #3C211F",
"8  c #361621",
"9  c #381721",
"0  c #391921",
"q  c #3D2020",
"w  c #431F25",
"e  c #462127",
"r  c #452226",
"t  c #472427",
"y  c #442126",
"u  c #492427",
"i  c #462824",
"p  c #4C2B27",
"a  c #4D2B27",
"s  c #462128",
"d  c #462228",
"f  c #472228",
"g  c #462128",
"h  c #492528",
"j  c #4A2428",
"k  c #4A2528",
"l  c #4B2528",
"z  c #4B2529",
"x  c #4B2728",
"c  c #4B2729",
"v  c #4C2529",
"b  c #4C2729",
"n  c #4D272A",
"m  c #4C2529",
"M  c #4E2929",
"N  c #4E2B29",
"B  c #4D282A",
"V  c #4E282A",
"C  c #4F282B",
"Z  c #4F292B",
"A  c #4E2A29",
"S  c #50292B",
"D  c #51292B",
"F  c #512A2B",
"G  c #512B2B",
"H  c #512E29",
"J  c #51292C",
"K  c #512A2C",
"L  c #522A2C",
"P  c #532A2C",
"I  c #522B2C",
"U  c #532B2C",
"Y  c #532A2D",
"T  c #532B2D",
"R  c #542B2D",
"E  c #532C2C",
"W  c #542D2C",
"Q  c #512A2B",
"!  c #54302B",
"~  c #55312B",
"^  c #56312B",
"/  c #57322C",
"(  c #56322C",
")  c #58332C",
"_  c #59332D",
"`  c #5A3030",
"'  c #5B3030",
"]  c #5C3131",
"[  c #5D3131",
"{  c #5D3231",
"}  c #5E3232",
"|  c #5E3332",
" . c #5D3530",
".. c #5B3130",
"X. c #603731",
"o. c #613731",
"O. c #633733",
"+. c #663735",
"@. c #643933",
"#. c #653933",
"$. c #653A33",
"%. c #663935",
"&. c #653A34",
"*. c #663A34",
"=. c #673836",
"-. c #673C34",
";. c #673936",
":. c #693C36",
">. c #6B3D36",
",. c #6B3C37",
"<. c #6B3D37",
"1. c #693937",
"2. c #6C3C38",
"3. c #6C3D38",
"4. c #6D3D38",
"5. c #6E3E39",
"6. c #6F3F38",
"7. c #74423A",
"8. c #74423C",
"9. c #75423C",
"0. c #75433C",
"q. c #76433C",
"w. c #76433D",
"e. c #77443D",
"r. c #74423C",
"t. c #78443D",
"y. c #7A463E",
"u. c #78443D",
"i. c #7E4940",
"p. c #7F4A40",
"a. c #864E44",
/* pixels */
"                                                                                                                                ",
"                                # # O . . o O X X > 7 i i q y y y i i 7 < & @ @ @ @ @ @ @ @ &                                   ",
"                1 > > > > > > > > & # # # # # X X 6 <.y.q.7.7.7.7.q.e.$.5 X X # # # # # # # & >                                 ",
"                > O X X X X X X > a $.&.$.-. .5 O < D | ` ` ` ` ` ` | N > @ 7 o.-.$.$.$.&.$.a > X X X X X X O >                 ",
"  > > > > > > , 5 7 7 7 7 7 < O # N 5.5.<.5.o.5 O > c L L D D D D L L y - @ q &.5.<.<.<.5.5.N # O < 7 7 7 7 7 5 , > > > > > >   ",
". X O # # @ X o 7 <.y.q.q.q.~ * # 0 L L D L c < o > y c t t t t t t c 0 & O 3 N L D D D L L 0 # * ~ q.q.q.y.<.7 o X @ # # O X . ",
". # i o.&./ < O 3 W | | | | y # # 0 L L L L c < X X @ # # # # # # # # @ X X 5 N L L D D L L 0 # # y | | | | W 3 O < / &.o.i # . ",
". * / p.a.7.7 O > c L L L L 0 # o > 5 5 5 5 5 - O o o o o X . . X o o o O + > 5 5 5 5 5 5 5 > o # 0 L L L L c > O 7 7.a.p./ * . ",
". * ~ y.p.<.6 O > y c c c c 6 # . X X X X X X % ; : : : : & O O ; : : : : ; + X X X X X X X X . # 6 c c c c y > O 6 <.p.y.~ * . ",
". * ~ q.5.E 3 X X # # # # # @ X X + % % % X X > w s y s y 9 ; : 9 y s y s 0 > X o % % % % % + X X @ # # # # # X X 3 E 5.q.~ * . ",
". * ) e.&.c , X . . . o o o X . O 1 8 9 4 & % 5 N R L L L w 2 4 y L L L L v 3 + ; 4 8 8 8 8 1 O . X o o o . . . X , c &.e.) * . ",
". * H <.| y > X . X + ; : : % o # 0 N L c 4 : 9 v L D D D w : 2 y D D D L v 8 : 8 c D N D N 0 # o % : : ; + X . X > y | <.H * . ",
"& > > > > # X X o % 2 w s y 9 ; : w L L v 8 : 9 v L D D D w : 2 y D D D L v 8 : 9 v L D L D w : - 9 y s w 2 % o X X # > > > > & ",
"& > < < > & O X O ; 9 v W L y 2 2 w D L c 8 : 9 v L D D D w : 2 y D D D L v 8 : 9 v L D D D w 2 2 y L W v 9 ; O X O & > < < > & ",
". * ! 5.o.t > X O ; 9 c L D w 2 2 w D L c 8 : 9 v L D D D w : 2 y D D D L v 8 : 9 v L D D D w 2 2 w D L c 9 ; O X > t o.5.! * . ",
". * / q.=.c > X O ; 9 c L D w 2 2 w D L c 8 : 9 v L D D D w : 2 y D D D L v 8 : 9 v L D D D w 2 2 w D L c 9 ; O X > c =.q./ * . ",
". * / q.+.c > X O ; 9 c L D w 2 2 w D L c 8 : 9 v L D D D w : 2 y D D D L v 8 : 9 v L D D D w 2 2 w D L c 9 ; O X > c +.q./ * . ",
". * / q.+.c > X O ; 9 c L D w 2 2 w D L c 8 : 9 v L D D D w : 2 y D D D L v 8 : 9 v L D D D w 2 2 w D L c 9 ; O X > c +.q./ * . ",
". * / q.+.c > X O ; 9 c L D w 2 2 w D L c 8 : 9 v L D D D w : 2 y D D D L v 8 : 9 v L D D D w 2 2 w D L c 9 ; O X > c +.q./ * . ",
". * / q.+.c > X O ; 9 c L D w 2 2 w D L c 8 : 9 v L D D D w : 2 y D D D L v 8 : 9 v L D D D w 2 2 w D L c 9 ; O X > c +.q./ * . ",
". * / q.+.c > X O ; 9 c L D w 2 2 w D L c 8 : 9 v L D D D w : 2 y D D D L v 8 : 9 v L D D D w 2 2 w D L c 9 ; O X > c +.8./ * . ",
". * / q.+.c > X O ; 9 c L D w 2 2 w D L c 8 : 9 v L D D D w : 2 y D D D L v 8 : 9 v L D D D w 2 2 w D L c 9 ; O X > c +.8./ * . ",
". * / q.+.c > X O ; 9 c L D w 2 2 w D L c 8 : 9 v L D D D w : 2 y D D D L v 8 : 9 v L D D D w 2 2 w D L c 9 ; O X > c +.q./ * . ",
". * / q.+.c > X O ; 9 c L D w 2 2 w D L c 8 : 9 v L D D D w : 2 y D D D L v 8 : 9 v L D D D w 2 2 w D L c 9 ; O X > c +.8./ * . ",
". * ) y.=.v > X O ; 9 c L D w 2 : w D L c 8 : 9 v L D D D w : 2 y D D D L v 8 : 9 v L D D D w 2 2 w D L c 9 ; O X > v =.y.) * . ",
"X * i ) D 6 & X O ; 9 c L D w 2 2 w D L c 8 : 9 v L D D D w : 2 y D D D L v 8 : 9 v L D D D w 2 2 w D L c 9 ; O X & 6 D ) i * X ",
"> > & # @ O X X O ; 9 c L D w 2 2 w D L c 8 : 9 v L D D D w : 2 y D D D L v 8 : 9 v L D D D w 2 2 w D L c 9 ; O X X O @ # & > > ",
"@ * 5 i 6 < # X O ; 9 c L D w 2 2 w D L c 8 : 9 v L D D D w : 2 y D D D L v 8 : 9 v L D D D w 2 2 w D L c 9 ; O X # < 6 i 5 > # ",
". * / q.&.c > X O ; 9 c L D w 2 2 w D L c 8 : 9 v L D D D w : 2 y D D D L v 8 : 9 v L D D D w 2 2 w D L c 9 ; O X > c &.q./ * . ",
". * / q.+.c > X O ; 9 c L D w 2 2 w D L c 8 : 9 v L D D D w : 2 y D D D L v 8 : 9 v L D D D w 2 2 w D L c 9 ; O X > c +.q./ * . ",
". * / q.+.c > X O ; 9 c L D w 2 2 w D L c 8 : 9 v L D D D w : 2 y D D D L v 8 : 9 N L D D D w 2 2 w D L c 9 ; O X > c +.q./ * . ",
". * / q.+.c > X O ; 9 c L D w 2 2 w D L c 8 : 9 v L D D D w : 2 y D D D L v 8 : 9 v L D D D w 2 2 w D L c 9 ; O X > c +.q./ * . ",
". * / q.+.c > X O ; 9 c L D w 2 2 w D L c 8 : 9 v L D D D w : 2 y D D D L v 8 : 9 v L D D D w 2 2 w D L c 9 ; O X > c +.q./ * . ",
". * / q.+.c > X O ; 9 c L D w 2 2 w D L c 8 : 9 v L D D D w : 2 y D D D L v 8 : 9 v L D D D w 2 2 y L L c 9 ; O X > c +.q./ * . ",
". * / q.+.c > X O ; 9 c L D w 2 2 w D L c 8 : 9 v L D D D w : 2 y D D D L v 8 : 9 v L D L D w : : 9 t N c 9 ; O X > c +.q./ * . ",
". * / q.+.c > X O ; 9 c L D w 2 2 w D L c 8 : 9 v L D D D w : 2 y D D D L v 8 : 9 v L D L L 0 & X o & q c 9 ; O X > c +.q./ * . ",
". * / q.+.c > X O ; 9 c L D w 2 : w D L c 8 : 9 v L D D D w : 2 y D D D L v 8 : 9 v L D y 6 3 < < , < 3 3 1 ; O X > c +.q./ * . ",
". * / q.+.c > X O ; 9 c L D w 2 2 w D L c 8 : 9 v L D D D w : 2 y D D D L v 8 : 9 v L N 6 @ # 0 v v 0 & X % = O X > c +.q./ * . ",
". * / q.&.c > X O ; 9 c L D w 2 2 w D L c 8 : 9 v L D D D w : 2 y D D D L v 8 : 9 v L N 6 O o : 4 8 : O X $ = O X > c &.q./ * . ",
"& < 7 i q 3 # X O ; 9 c L D w 2 2 w D L c 8 : 9 v L D D D w : 2 y D D D L v 8 : 9 v L D 0 & O O + $ + O + % = + X # 3 q i 5 & O ",
"6 5 > @ O o X X O ; 9 c L D w 2 2 w D L c 8 : 9 v L D D D w : 2 y D D D L v 8 : 9 v E D w 4 & O X X O & : : ; + X X o @ @ # & & ",
"@ > i / N 6 & X O ; 9 c L D w 2 2 w D L c 8 : 9 v L D D D w : 2 y D D D L v 8 : 9 v L D v s 9 : % % ; 9 w 8 ; O X & 6 N / i & X ",
". * ) y.=.v > X O ; 9 c L D w 2 2 w D L c 8 : 9 v L D D L w : 2 y D D D L v 8 : 9 v L D L L y 4 : 4 0 c v 9 ; O X > v =.y.) * . ",
". * / q.+.c > X O ; 9 c L D w 2 2 w D L c 8 : 9 v L D D L w : 2 y D D D L v 8 : 9 v L D D D w 2 2 w N L c 9 ; O X > c +.q./ * . ",
". * / q.+.c > X O ; 9 c L D w 2 2 w D L c 8 : 9 v L D D L w : 2 y D D D L v 8 : 9 v L D D D w 2 2 y L L c 9 ; O X > c +.q./ * . ",
". * / q.+.c > X O ; 9 c L D w 2 2 w D L c 8 : 9 v L D D D w : 2 y D D D L v 8 : 9 v L D D D w 2 2 w D L c 9 ; O X > c +.q./ * . ",
". * / q.+.c > X O ; 9 c L D w 2 2 w D L c 8 : 9 v L D D D w : 2 y D D D L v 8 : 9 v L D D D w 2 2 w D L c 9 ; O X > c +.q./ * . ",
". * / q.+.c > X O ; 9 c L D w 2 2 w D L c 8 : 9 v L D D D w : 2 y D D D L v 8 : 9 v L D D D w 2 2 w D L c 9 ; O X > c +.q./ * . ",
". * / q.+.c > X O ; 9 c L D w 2 2 w D L c 8 : 9 v L D D D w : 2 y D D D L v 8 : 9 v L D D D w 2 2 w D L c 9 ; O X > c +.q./ * . ",
". * / q.+.c > X O ; 9 c L D w 2 2 w D L c 8 : 9 v L D D D w : 2 y D D D L v 8 : 9 v L D D D w 2 2 w D L c 9 ; O X > c +.q./ * . ",
". * / q.+.c > X O ; 9 c L D w 2 2 w D L c 8 : 9 v L D D D w : 2 y D D D L v 8 : 9 v L D D D w 2 2 w D L c 9 ; O X > c +.q./ * . ",
". * / q.+.c > X O ; 9 c L D w 2 2 w D L c 8 : 9 v L D D D w : 2 y D D D L v 8 : 9 v L D D D w 2 2 w D L c 9 ; O X > c +.q./ * . ",
". * / q.+.c > X O ; 9 c L D w 2 2 w D L c 8 : 9 v L D D D w : 2 y D D D L v 8 : 9 v L D D D w 2 2 w D L c 9 ; O X > c +.8./ * . ",
". * / q.+.c > X O ; 9 c L D w 2 2 w D L c 8 : 9 v L D D D w : 2 y D D D L v 8 : 9 v L D D D w 2 2 w D L c 9 ; O X > c +.8./ * . ",
". * / q.&.c > X O ; 9 c L D w 2 2 w D L j 8 : 9 v L D D L w : 2 y D D D L v 8 : 9 v L D D D w 2 2 w D L c 9 ; O X > c &.q./ * . ",
". * ~ 7.+.u > X O ; 9 c L D w 2 2 w D L j 8 : 9 v L D D L w : 2 y D D D L v 8 : 9 v L D D D w 2 2 w D L c 9 ; O X > u +.7.~ * . ",
"& > 3 5 < > O X O ; 9 c L D w 2 2 w D L c 8 : 9 v L D D D w : 2 y D D D L v 8 : 9 v L D D D w 2 2 w D L c 9 ; O X O > < 5 3 > & ",
"> > > * # @ X X O ; 9 c L D w 2 2 w D L c 8 : 9 v L D D D w : 2 y D D D L v 8 : 9 v L D D D w 2 2 w D L c 9 ; O X X @ # * > > > ",
". * N &.` y > X O ; 9 c L D w 2 2 w D L c 8 : 9 v L D D D w : 2 y D D D L v 8 : 9 v L D D D w 2 2 w D L c 9 ; O X > y ` &.N * . ",
". * ) y.=.v > X O ; 9 c L D w 2 2 w D L c 8 : 9 v L D D D w : 2 y D D D L v 8 : 9 v L D D D w 2 2 w D L c 9 ; O X > v =.y.) * . ",
". * / q.+.c > X O ; 9 c L D w 2 2 w D L c 8 : 9 v L D D D w : 2 y D D D L v 8 : 9 v L D D D w 2 2 w D L c 9 ; O X > c +.q./ * . ",
". * / q.+.c > X O ; 9 c L D w 2 2 w D L c 8 : 9 v L D D D w : 2 y D D D L v 8 : 9 v L D D D w 2 2 w D L c 9 ; O X > c +.q./ * . ",
". * / q.+.c > X O ; 9 c L D w 2 2 w D L c 8 : 9 v L D D D w : 2 y D D D L v 8 : 9 v L D D D w 2 2 w D L c 9 ; O X > c +.q./ * . ",
". * / q.+.c > X O ; 9 c L D w 2 2 w D L c 8 : 9 v L D D D w : 2 y D D D L v 8 : 9 v L D D D w 2 2 w D L c 9 ; O X > c +.q./ * . "
};
