/* XPM */
static char *b5d47041d647499c8951b69b8cd6dde3DNFeq2vz2J80YZs3[] = {
/* columns rows colors chars-per-pixel */
"64 64 124 2 ",
"   c #03242E",
".  c #032430",
"X  c #032731",
"o  c #032832",
"O  c #032933",
"+  c #032A33",
"@  c #032A34",
"#  c #032B34",
"$  c #032D35",
"%  c #032D36",
"&  c #032E37",
"*  c #033037",
"=  c #033038",
"-  c #033138",
";  c #043138",
":  c #043238",
">  c #04333A",
",  c #04343A",
"<  c #04353C",
"1  c #04373E",
"2  c #05383C",
"3  c #04383F",
"4  c #063D3F",
"5  c #053A40",
"6  c #063F41",
"7  c #063F42",
"8  c #063F43",
"9  c #053F44",
"0  c #064142",
"q  c #064144",
"w  c #064445",
"e  c #064447",
"r  c #074646",
"t  c #074947",
"y  c #074A47",
"u  c #064649",
"i  c #06474B",
"p  c #06494B",
"a  c #064B4D",
"s  c #074C4C",
"d  c #064C4D",
"f  c #074C4D",
"g  c #084B4A",
"h  c #084E4C",
"j  c #07504E",
"k  c #0A504C",
"l  c #0A504D",
"z  c #0A524F",
"x  c #0A564F",
"c  c #0B5450",
"v  c #0B5550",
"b  c #0B5652",
"n  c #0C5751",
"m  c #0B5851",
"M  c #0A5A53",
"N  c #0C5853",
"B  c #0C5D53",
"V  c #0B5854",
"C  c #0C5854",
"Z  c #0D5E56",
"A  c #0D6156",
"S  c #0E6458",
"D  c #0C665B",
"F  c #0C675B",
"G  c #0D675C",
"H  c #0D695C",
"J  c #0D695D",
"K  c #0D6B5E",
"L  c #0E6C5E",
"P  c #0E6C5F",
"I  c #0E6D5F",
"U  c #10635A",
"Y  c #10675A",
"T  c #11675C",
"R  c #11695C",
"E  c #11695D",
"W  c #126B5E",
"Q  c #126C5D",
"!  c #106D5E",
"~  c #106D5F",
"^  c #107060",
"/  c #127362",
"(  c #147362",
")  c #137562",
"_  c #137563",
"`  c #137663",
"'  c #157563",
"]  c #137864",
"[  c #127A66",
"{  c #147864",
"}  c #177864",
"|  c #177865",
" . c #147A65",
".. c #147C67",
"X. c #177D67",
"o. c #177E67",
"O. c #177F68",
"+. c #187E68",
"@. c #188068",
"#. c #19826A",
"$. c #1A836A",
"%. c #1A846B",
"&. c #1A856B",
"*. c #1B876C",
"=. c #1B886D",
"-. c #1C886D",
";. c #1C8A6E",
":. c #1C8B6E",
">. c #1D8B70",
",. c #1D8C70",
"<. c #1D8D70",
"1. c #249272",
"2. c #299673",
"3. c #2A9774",
"4. c #3FAE7D",
"5. c #56C686",
"6. c #5DCC88",
"7. c #5ECD89",
"8. c #7EEF96",
"9. c #85F699",
"0. c #86F799",
"q. c #89FA9A",
"w. c #95FF9F",
"e. c #94FFA0",
/* pixels */
";.;.;.>.:.:.#.! ! #.;.:.,.>.>.>.;.>.>.;. .J / #.;.:.,.,.;.,.>.#.! I  .;.>.>.>.>.;.,.;.` J ` &.;.:.,.,.>.;.;.,.;.#.( J ` =.:.:.;.",
";.;.*.&.&.#. .J J ] &.&.*.&.*.#.*.#.*.#.` J ^ +.&.&.&.&.&.#.*. .! J  .#.&.&.&.&.&.&.#./ G / X.&.&.&.#.&.*.#.*.*.#.J J ` &.=.;.;.",
",.=.O.` ` ` ! F J ! ` ` ` ` ` ` ` ` ` ( J J J ^ ` ` ` ` | ` ` ! J G ! ] ` ` ` / ` ` ` J G J ` ` ` ` ` ` ` ` ` ` / J G I ` X.*.;.",
"=.#.` J J J J J J J J J J G G G J J G J J J J J J J G J J E G J J J J J J J J G F J J J F F J J J J J E F J J E J J F G J ` ;.:.",
" .` I F I `  .{ | ( `  .` / J J (  . . .`  . . .( J F ! `  . . .] ] ] '  .` ( G J ` `  .(  . .' ` ` I J ! `  .` | ` ` J J ` #.;.",
"J J F J ` #.&.:.*.*.*.*.*.( J J } *.*.#.*.&.*.&.+.! F ` $.*.%.*.#.*.*.*.*.&.+.J J +.&.&.*.*.$.*.&.+.^ J ` #.*.#.&.*.#.` J ` *.;.",
"/ / G J ` &.:.,.*.+. .` ` Y N B ! |  .( ` '  .` ! B x G ` }  .' | ]  .|  .` Y N C E |  .} ( `  . .( Z n A / +.;.,.,.*.` J I ] @.",
"&.X.I J ` &.,.,.#.E b C n y 2 4 h C C C C C C V z 0 , y n n C C b V n C n N g 2 < g b C C C C C C z 0 ; 0 b E #.,.,.*. .J J J I ",
";.&.` J ` *.*.&.! n q 8 9 , # O 2 q q 8 0 9 q 9 < $ O > 8 q q 0 9 q 9 q q q 1 # # < 9 q 0 q 9 q 8 8 $ . $ 8 z / &.=.*.` G J J ! ",
";.&.` J  .*.+.Y b 8 ; & $ #   X @ & ; > > & & & &     O $ $ > & & & & & & $ # X X X ; & & & & & $ & .     : 8 b E X.&. .J !  .+.",
",.*.` J ` $.` z 8 $ X X @ @ # O @ @ # #   # X $ # # # # # # O   X & # X # # O X O X X X & @ # & # O # # X O ; q N ` &.` J ` *.*.",
">.&.` J E ( A e $ X X & < 5 2 < < ; O . & < < 1 1 2 < 1 1 $ X $ ; < 5 < , 1 2 1 ; # X $ < 2 , < 2 < 5 2 $ . $ 9 b  .;. .J | *.,.",
">.&.` G J J b , X   # < e i i i i 0 > # * 9 i i i i i i e 2 O $ 9 i i i i q i i q > # < i i i q i i i q < # $ q b ` *.` J ` #.;.",
">.&.` J I I Z 0 $ X # 5 i a p p a i $ # 1 i f f a a p a p 8 O * 8 f a a f f a a 9 > # 5 i a a a a a a i 2 O # , y J ( ` J ` *.;.",
";.&.` G | X.! c 8 $ X 2 i a p p a 0 > O , e p f p a p p i , # & 8 f f i a i p f q ; # < q a a a p p p i 2 O   O , n J J G ` #.>.",
"#. ./ J  .*.| V 8 $ O < i f p i 0 8 $ O $ 0 8 8 8 8 8 0 8 > # $ , q 8 8 8 8 0 8 5 # X ; 0 9 8 0 p p p i 2 $   # 8 C E J J ` *.>.",
"! ! G J  .&.` N q $ # < a h a q < & X X O # % % & & & & & # . . # & & & & & : : @ @   # # $ $ 1 q p f i , # # 1 s !  ./ G ` *.>.",
"J J G J  .&. .n q $ O > q q q 5 # O # # # # & # #     # # # # # & @ @ @ #     # # @ @ @ # O # $ < p e 0 > O & q n ` *. .J / +.*.",
"+.] I J / *.` n 9 ; O X ; ; ; % O X ; 2 8 2 < 2 : #   & ; , 5 5 2 < 2 < &   # ; < 5 , 0 < ; O X & ; * * # O > q C } *.' J J E ] ",
";.*.` J ] *.| C q ; X X # # # # . $ 2 i i i f f r , & 4 s h f f f a h a 2 & , q a a i p a 5 O   # # # # # . & q C  .*. .J G J J ",
";.#.` J  .*.' C q & X & , > 1 $ # # < i a a z U A h y N E E E J E E ! Y n y h A Y z f f a 2 & # & , ; , $ # & q C } &.] J G / ` ",
":.#.` J  .*.' C 9 $ # < q i p 2 & & 5 i i a Z ` O.E G ! #.*.#.#.&.#.$.#.I G E +.` Z g i a 2 # & 0 e i q < X & q C ` &.| J ] #.*.",
",.*.` J `  .T g < # # , p f a 8 & # 5 i n Z !  .O.~ G ` O.+.%.#.+.#.#.+.] G ! O.O.E Z b a 2 # & 0 p a i 2 X # < g E  .` J ` *.=.",
",.#.` J J I C < # X # 1 i a p 8 & # 5 h U `  .` J J J J ! ! I I ! ! ! ! J G J J / X.` A f < # & 9 a a i 5 # X O 2 n J J J ` *.;.",
">.#.` J G J C < @   # 2 q f f 8 & # : w S X.X.I F J ! I I I J I J J I I I I J G I +. .S e : # $ 8 p p i < O X # 8 n J E J ` #.=.",
">.*.` J (  .E g < & # 2 i a a 8 &   # ; g ! ! F J { X.+.] ] ] ] X. .] ] ..O.] J F ^ E k : O X & 8 i a i < O # < h Y  .( J | *.,.",
";.*.( G ' *.' C 9 & # , i p p 9 ;     & y S J J I X.;.1.3.3.3.3.3.3.3.3.1.;.O.J J J S y :     $ 8 p a i 5 # & 8 z ` *.' J / #.>.",
">.#.` J  .*. .C q & @ 5 i f a 0 ;   # 8 b I | J I X.1.4.5.6.6.6.6.6.6.5.4.1.O.I J ` ~ n 4 $ X > 8 f h i < # & q Z ` *. .J / *.>.",
";.*.` J ` *.` C q & X < r f f 8 & # < f E O.+.! J X.3.5.8.q.9.0.0.0.q.8.5.3.] I ! +.#.E f < # & 4 a a q < X ; q n  .#. .J ` #.;.",
"X.| ! J  .&. .n 9 ; X ; < 5 2 ; # # 2 h E *.#.~ I ] 3.6.q.e.e.w.e.e.e.q.6.3.] J ! +.#.E f < O # , 2 5 5 ; X ; q C ` &.` I ` ;.;.",
"J J J J  .*.` C q & X # & # @ #   X < f E #.#.~ J ] 2.6.0.e.e.w.e.e.e.0.6.3.[ I ! #.&.E f 1 $   O # # # X O ; 9 n ' &. .J ` #.;.",
"I ! J J  .#.` n 8 ; X X & & & X # # 5 a E #.+.! I ] 2.6.0.e.e.e.e.e.e.0.6.3.[ J I #.#.E a 5 # . O & & & X X & 9 C  .&. .J ! +.#.",
"+.X.` J ` *.X.N 9 & # > 5 9 0 , @ @ < f E #.#.~ I ` 3.6.9.w.e.e.w.w.w.9.6.3.` J ! #.#.Q g , @ @ < 8 8 8 > # $ 9 C | $. .G G ~ / ",
";.#./ J { *.` C 9 # # 2 i f f 8 & @ 5 h E #.#.! J  .3.6.0.e.w.e.w.w.w.9.6.3.| I ! @.#.Q h 5 @ & q a p i < # & 9 V ( *. .J G J J ",
":.*.` J { *.} N q & # 1 i s p 8 & @ 2 h E #.+.! I ] 3.6.q.e.e.e.w.e.e.0.6.3.] K ! #.$.! f 5 @ & 8 p f p 1 # & q C  .#. .J !  . .",
":.&.` J ` #.` z 8 $ # , p p f 8 & @ , g ! &.#.! I ] 3.5.8.q.0.0.0.0.q.9.5.2.] I ! +.$.E g < @ & 8 p p i < # & q C ` *.` J ` #.;.",
",.*.| G ` ` S r ; X # < q f a 8 & @ < f E *.#.! I [ 1.4.5.6.7.6.6.6.6.5.4.1.[ I ! #.&.E f 5 # & 8 p a i , O & q C } &. .E ` &.=.",
">.#.` G J J z 2 X X @ 5 i a p 8 & @ < h J #.X.! I #.=.1.3.3.3.3.3.3.3.3.1.<.#.I I X.#.E f < # & 0 p p i , $ # 9 C ` &.` J | &.,.",
";.&.` G J ! Z 8 & X # , i p a 8 $ O ; q A |  .J J ] O.O.] ] X.{ [ [ ] ..O.O.] G J X. .A 0 > # $ 8 p a i 2 # # < g E X./ J / #.,.",
",.&.` J ` +.Y z 2 @ @ 5 i a a 8 > X   > g G I J G J I J J I I F J I J J J I J G F I F p &     & 8 a f i 2 # X # 8 n J J G ` *.>.",
"#.O.^ J  .*. .z q $ # < 0 q q 5 $   . > q N J K I F F F I ! ! ! I I I I J F J I I F N w $ X O $ 5 q q 9 ; # X @ , N J J J ` *.>.",
"/ I J J  .&.X.C q ; O X ; ; ; & O # > 2 q j A [ X./ J { +.#.#.+.#.#.@.+.{ J ^ +.` A z p 8 ; O X & ; ; ; @ X @ < h Y  .( J ` *.>.",
"J J J J  .*.` N q & X X # @ @ @   # 5 i i a A ` X.Y Z / #.*.#.#.#.#.&.+.^ S Y +.] Z p i i , O   X @ @ @ X X & q N ` *.` J ` +.*.",
" .] J J  .*.` b q & # & < < < , O # 8 a a h z G A k p x Y E E ! E ! E E z y z S S x p p a 8 # # , < 2 < @ # ; q N  .*. .J Y ` ` ",
"*.#./ E ` *.` C 9 $ # < 0 a i 8 $ O 2 i i a a g q > & 8 a f h f h h h a 8 & , e s a p p i 2 # & 8 i p 0 < & & 8 n  .&. .F J J J ",
";.&.` J ` *.` C 9 $ O < i p p 0 & O > 2 2 5 < 5 > #   & < 5 < 2 < 5 2 < @   @ ; 2 2 5 < 5 ; # & 8 h h i 2 @ & q n ` &. .J J ! ` ",
",.&./ J  .*. .C q > # 2 i a i 0 & X O O # # # $ # .   # # # & # @ @ @ @ #   . @ # # # # @   # ; 8 p a i < @ & 9 n | &.{ J ` #.&.",
">.&.` G ( +.E h < # # , i a a q 1 $ O   # # & & & $ > ; $ X     @ & & & & & & & & & & # X # @ ; 0 i a i < @ & 9 V ] &.` J ` &.;.",
">.&.` J J ! B 0 #   # , f p p i q 5 & # : 2 0 9 8 8 8 8 8 ; # & , 8 8 0 8 0 8 8 9 0 8 ; @ ; 5 0 i p p i 2 @ ; 8 N ` &. .J ` &.;.",
",.&.` G J J x , X X @ 5 i p p p p i : @ < q p a a i f p i 8 # @ 0 i a p i p i a a f q < @ ; q p a p p i < @ @ 8 c ( +.` J ` ;.:.",
";.*.` J / ` E p , # # , p p p a a q ; @ < f a a a a a f p , X & q a p f f a h a a a p < @ ; i a a p p i 5 @ X & 8 A ! I D | #.;.",
";.#.( J { #.` b 8 & # , q i i i h q ; X < q i i i 0 i i a , & @ 8 i i e i i i i i i q , @ ; 0 i i i p q , #   . , n J J J / *.>.",
"` ` I J ] =.` n 8 &   : < , , 5 < , @ X & , 2 , < < < < < ; X # : < 5 < < < 5 < 1 < < $ X X ; 2 < 2 , , ; X X & 0 A / ! J ` #.=.",
"J J F F  .&.| C 0 & @ X # & # @ @ @ # X X # & X O $ @ @ @ @   # X O # # # # @ @ X O # O # X @ & # @ # #   # ; 8 c ( #.] J ` *.>.",
"| ^ J J { ;.X.Y n 9 &     X & & & & & & #   X & & & & & & & ; ; & & $ $ O   X # & $ $ ; ; & ; & X X X & & ; 8 n E +.*.] J / #.,.",
"#.X.^ J ` &.*.#./ n 8 & X @ 4 w 9 q q q ; X & 2 q q q 9 q q q q 9 9 q 8 ; X $ 5 q q 9 q 9 q 9 < # X , 8 q q z ! #.;.*.` J ] *.,.",
";.&.` J  .&.,.:.+.T c q < 0 z n N N N b e , 6 k C C c C n C n N C C n n i , 8 z n n n C C C b h 8 , a c n n E #.>.>.*.` J / X.#.",
";.&.` J { ;.,.;.;.+.( A n Z (  .{ {  .` S n B Q  . .` ` |  .` ` ` `  .| G z B !  .`  .'  .' | E B x D '  .` +.*.,.,.=.] J J I / ",
":.&./ J ` #.;.&.*.*.#./ J ~ O.*.&.&.&.#.` F ^ +.*.*.*.*.&.*.&.&.*.*.*.#.` J ! +.*.*.&.&.*.*.*. .! F ' *.*.*.&.*.*.*.#.` F F J J ",
",.&.` G J ` ` ] `  .( ! J J `  .{ { +.{ ^ F ! {  .( ` |  ./  . . . .` ( / F Q `  . . .{ '  ._ / J J / '  .'  .` ` | ` J F I `  .",
",.&.` J D F J J J J J E J G J J F J J J G G J J J G J J J J J J J J J J G G F F J J J J J J J J J F J E J J J J J F J G J ` #.=.",
";.*.+.` I G J ^ ` ` ` ` ` ` ` ` ` / J F J ` ` ` ] / ` ` ` ! G F ~ ` ` ` ` ) ` ` ! G F I / ` ` ` ` ` ` ` ` ` ! F J I ` ` { X.;.:.",
";.;.;.#.` J / +.&.&.*.#.#.*.*.#.&.+.` J ` #.&.&.*.#.&.&.#.{ J ! +.#.*.#.#.*.*.*.+./ J ` #.&.*.#.#.*.#.&.;.&.{ I J X.=.&.&.=.;.;.",
";.;.:.*.] J / #.;.;.>.>.>.>.>.;.;.&./ J ` &.,.>.>.>.>.>.;.+.J / #.;.>.>.>.,.;.;.#.` J  .;.;.>.>.>.>.,.:.:.;.+.! I X.;.,.;.;.;.;."
};
