/* XPM */
static char *_f3af1bd40dd479381c4f6da7f94f2d4qLUTOFaaXYgo5wor[] = {
/* columns rows colors chars-per-pixel */
"64 64 121 2 ",
"   c #3D1938",
".  c #3D1939",
"X  c #3D183A",
"o  c #3D183C",
"O  c #3D193C",
"+  c #3D183F",
"@  c #3E193F",
"#  c #3E1940",
"$  c #3E1942",
"%  c #3D1A42",
"&  c #3E1844",
"*  c #3E1945",
"=  c #3E1A44",
"-  c #3E174C",
";  c #3F184A",
":  c #3E194A",
">  c #3E1A4A",
",  c #3F194F",
"<  c #3F1750",
"1  c #3F1754",
"2  c #3F1853",
"3  c #3F1855",
"4  c #3F1956",
"5  c #3C1E54",
"6  c #3F195E",
"7  c #3D2154",
"8  c #3E2257",
"9  c #3E1C65",
"0  c #3A2363",
"q  c #3D2966",
"w  c #392868",
"e  c #392869",
"r  c #3A2969",
"t  c #3A2A6B",
"y  c #3C2A6A",
"u  c #3D2B6C",
"i  c #3E2C6C",
"p  c #3F2D6D",
"a  c #3F2D6E",
"s  c #401855",
"d  c #401858",
"f  c #40185A",
"g  c #411B5D",
"h  c #40185E",
"j  c #40185F",
"k  c #40245B",
"l  c #411767",
"z  c #401860",
"x  c #421B63",
"c  c #411865",
"v  c #421B66",
"b  c #421B67",
"n  c #411769",
"m  c #411868",
"M  c #421B68",
"N  c #41186A",
"B  c #441E6C",
"V  c #441F6C",
"C  c #422562",
"Z  c #42276D",
"A  c #46246E",
"S  c #452868",
"D  c #412D6B",
"F  c #46296C",
"G  c #492873",
"H  c #4A2B74",
"J  c #492D74",
"K  c #4B2C76",
"L  c #413170",
"P  c #423070",
"I  c #453170",
"U  c #443373",
"Y  c #453474",
"T  c #463475",
"R  c #463576",
"E  c #463676",
"W  c #493575",
"Q  c #493677",
"!  c #493777",
"~  c #4A3778",
"^  c #4D3479",
"/  c #4C3778",
"(  c #4A3879",
")  c #4B3979",
"_  c #4E397B",
"`  c #503A7D",
"'  c #503C7D",
"]  c #513C7E",
"[  c #503F7E",
"{  c #524080",
"}  c #544281",
"|  c #574585",
" . c #584685",
".. c #5A4786",
"X. c #5B4987",
"o. c #5C4A88",
"O. c #5D4B88",
"+. c #64528F",
"@. c #675591",
"#. c #6C5C96",
"$. c #73629B",
"%. c #77669F",
"&. c #7B6AA2",
"*. c #7C6BA3",
"=. c #7D6CA4",
"-. c #7E6CA7",
";. c #816FA9",
":. c #8170A7",
">. c #8272A8",
",. c #8373A9",
"<. c #8978B2",
"1. c #8B79B2",
"2. c #9282B7",
"3. c #9787BA",
"4. c #9889BB",
"5. c #9E8EC1",
"6. c #A08FC2",
"7. c #A192C3",
"8. c #A495C7",
"9. c #A99ACA",
"0. c #AC9CCC",
/* pixels */
". . . . . . . . . . . . . . . . . . . . . . . . . . . . . . . . . . . . . . . . . . . . . . . . . . . . . . . . . . . . . . . . ",
". . . . . . . . . . . . . . . . . . . . . . . . . . . . . . . . . . . . . . . . . . . . . . . . . . . . . . . . . . . . . . . . ",
". . . . . . . . . . . . . . . . . . . . . . . . . . . . . . . . . . . . . . . . . . . . . . . . . . . . . . . . . . . . . . . . ",
". . . . . . . . . . . . . . . . . . . . . . . . . . . . . . . . . . . . . . . . . . . . . . . . . . . . . . . . . . . . . . . . ",
". . . . . . . . . . . .   . .   . . . . . . . . . . . . .   . .   .   . . . . . . . . . . . . . . . . . . . . . . . . . . . . . ",
". . . . . . . . . . . . . . . . . . . . . . .   . . . . . . . . . . . . . . . . . . . . . . . . . . . . . . . . . . . . . . . . ",
". . . . . . .   . * : : : : : * @ . * * : : ; : : : : @ . @ : : : : : : , : # @ @ @ : , : : : : : # * . # : # # . . . . . . . . ",
". . . . . . .   @ 3 h h h h h 2 @ @ 2 h h h h h 6 h f : @ * 1 z h h z h 6 6 < # * 2 3 h h h h h 9 s & @ , 1 < #   . . . . . . . ",
". . . . . . # # : 3 6 h h h d 3 # @ , 6 6 6 3 9 6 6 3 : @ * 1 6 z h z f 6 6 - # # < h z h h d h 9 3 * @ 2 d d : @ @ . . . . . . ",
". . . . . . * 1 s 2 : : : : : # .   @ : : : : : : : : . . @ : : * : : : : * * . @ # : : : * : : , * . . @ * < < < # . . . . . . ",
". . . .   . * 3 d * @ . @ # # # @ @ . . . # # @ # @ @ @ @ @ . @ @ @ @ @ @ @ # # @ . . @ . @ @ @ @ @ @ .   @ : h 9 :   . . . . . ",
". . . . . . @ , : @ . * , < , 2 2 s @ . # , 2 , - , , 1 1 # . @ : ; d - , , 3 s , @ @ # s : s s < ; 2 , * . * z h :   . . . . . ",
". . . . . . . @ . . @ , 6 z c c c h : @ s h c c l c 9 z 9 < @ * 1 l c c z c c c 3 * @ , 9 h c c 9 l h z , @ : h h : .   . . . . ",
". . . . . . @ * * @ @ , l m m m m z s . s c m m n c n n c 3 @ * h c m m m m m m 6 : @ s l n m l l l c l < # : 6 h : .   . . . . ",
". . . . . . * s 1 * @ s c m m c c z : # * h m m c c n l m 3 # * d c m c m c m c 6 : @ - h n l l c c m c , @ : h h : . . . . . . ",
". . . . . X ; 9 6 : @ s z m m c h s * . * s d h d h d h 3 : @ # 3 d h d d h d h 2 # @ : f f d h c m m c 1 # # 1 < * .   . . . . ",
". . . .   . : 6 h * # , l c l 6 < # @ . . * * # * * * # * # . @ # * * * * * * * # @ . + # # * < z m m c < # @ @ @ #             ",
". . . .   . : 6 h : # , f 9 6 d * . # # # # # # @ . . @ # # # @ # # # . @ . # # # # @ + # @ . @ s h z h : @ . @ @ @             ",
". . . .     s 4 6 : @ @ ; : : @ # @ * 3 3 3 3 1 s .   @ , 3 2 2 2 2 s 2 @ . # : d s s s 3 * # @ # : s * # @ # , , # O       +   ",
". . . . . X ; 6 6 : . . + @ @ @ . @ 1 z c c m c h : @ d c M v v v c v c s # : h l z 9 c 9 3 # . @ @ # . . . : z 3 , O     +     ",
". . . . . . , 6 h : @ @ s s s * @ # s m m m V G F k 7 C J K J J J J J G C 7 k F G A 9 n l d + # * , , : # @ : h 6 ,         +   ",
". . . .   . ; 6 6 : @ : s h h s # # 3 h m c A ^ ) y q I _ _ ] _ _ { ] _ I q D ) ^ A l n 9 3 @ # 3 z c h , @ * z 6 : O           ",
". . . . . . # < 2 @ @ s h m m h * # s c V A J ~ E p t P ) _ Q _ ) ) _ ! D t p E Q G A B c 3 # * h m m c 2 @ : h 6 : O       O   ",
". . . . . . @ # @   @ s c m m d * # s l G ^ ~ P p w t t u D p p p p p p w t t p P ^ ^ G c 3 # * d m m c , @ * 6 6 : O     O     ",
". . . . . . # # # @ . < c m c h * @ , 3 F _ E p t p p a u t w w t u u u p D u e p E Q F g : . * d c m c - @ & 9 6 : . . . . . . ",
". . . . . . # < < * @ 3 c m c d * @ . 2 8 D D t t P ~ ~ E D t w D E E E ~ Q I t t D u k : # @ * h m m z d + ; 9 6 : .   . . . . ",
". . . . . . ; h 6 : @ 2 l c l d * . . # 7 q t t D E { |  .{ U Q } o.o.o. ._ ~ p y t w 7 # @ . * d m m c , @ * 3 1 : .   . . . . ",
". . . . . . ; 6 6 * @ 2 l n z 9 * @ * 3 C I D t p ~ | #.&.$.+.@.&.-.>.*.#.| ~ p u L I C s @ . * h m l l - @ . : , @ . . . . . . ",
". . . .   . ; 6 3 : . < 9 n c 3 * . , 9 G _ ~ u u E X.-.3.1.-.;.2.5.7.4.*.o.E u p ) _ J c - # * s z c h < @ . @ @ . . . . . . . ",
". . . . . . ; h 6 : @ * < < < , # # 3 M J _ ) p u E o.>.7.7.1.1.5.0.0.7.>.o.T u D ) _ J m 3 # # s 2 s s * X . : * @ . . . . . . ",
". . . . . . : 6 6 : . X # # # # @ # 3 v J ] ) p u T o.-.5.8.8.8.8.8.9.4.;.o.T u a ) ] G v s # . # # # # @ X # d 3 : . . . . . . ",
". . . .   . : 6 z ; @ @ * * * # O @ 2 v K ] ) p y P } &.2.5.8.8.8.8.9.5.:.o.T u a ) _ J v s @ @ # * * # @ . 2 z 6 : . . . . . . ",
". . . . . . : 9 6 : @ : s h s s # # s v J [ ) a w t E @.-.1.8.8.8.8.0.5.-.O.E t a ~ _ G m d @ # 3 d h s , @ : h z : . . . . . . ",
". . . . . . & 1 3 @ @ , c m c d * # : v J _ ~ p w w E @.-.1.8.8.8.8.8.5.:.O.E p p ) [ J v s @ * d c m c - @ : 3 h : . . . . . . ",
". . . . . . @ * * # @ 2 c m m h * # s v K [ ~ D w D _ $.1.8.8.5.1.1.5.7.>.o.E y p ) ] K v , @ * h m m c 2 @ * h z : . . . . . . ",
". . . . . . # # @ . @ s c m m d * # d m G _ ) p u E X.*.4.6.6.1.-.-.1.4.*.X.Q y D ) ] G v 3 @ * d c m c , # : z h : . . . . . . ",
". . . .     @ - : @ @ - c m c d * # s m K ` _ D u !  .#.*.>.>.&.@.@.$.*.#.X.Q p D ) _ J v 3 # * d m m c 3 @ : 6 6 , .   . . . . ",
". . . .     # 3 1 : @ 3 c m c h # # s v J ` Q D u ! { | o.o.o.} E E _  . .] ~ t D ) ] J v 3 # * d c m c , @ : 3 h : .   . . . . ",
". . . .     : h 6 : @ 2 l m l f # @ * d F Q T y u I ) Q ~ E E P t e D E ~ ~ I u u L E F 3 : . * h c m c 2 @ @ 2 , # . . . . . . ",
". . . .     s 6 6 : @ , z l l 9 * . # * 7 y y t t y p u u u u t e e t u u D y t t u u 7 # @ @ * h c m c 2 @ . @ # # . . . . . . ",
". . . . . . : h z : # : f z 6 - * . # * 7 0 t y a t t t p p D p D a u p u u w p p t 0 5 * @ . # < h 9 3 : @ # # # # X   . . . . ",
". . . .   . : h 6 : . @ * * * @ @ @ : 3 6 9 Z Q E p t p ~ ) ) ) ~ ) _ ~ L w D E E Z 9 6 3 : @ . * * * * @ @ # - < #     . . . . ",
". . . . . . : h 6 : X . # # # @ . # s c m c A ^ _ D q I _ _ ] ] _ ] _ _ I q D ! ^ A z m c 3 # . # @ # # . . : h 6 &     . . . . ",
". . . . . . : h 6 : . * , < < , . # 3 m n m B G F 7 7 C J J J J W J G J C 7 k F G B m n m 1 # @ , - < , * @ : z 9 s     . . . . ",
". . . . . . : s 6 # # , z c z s # @ < 9 c z m c 6 : @ 2 x c c l m m h x s # : 6 c c h m c s @ @ 1 c c h s @ * h 6 : .   . . . . ",
". . . . . . * < 2 # # 2 c m m h * @ * 2 s s s s , # . * s 2 s s s s s s @ . . s s 3 3 3 3 * @ * h l c c - @ * 6 h : . . . . . . ",
". . . . . . # # @ . @ 2 c m c d * . @ @ # # # # @ . . @ @ @ # @ s @ @ O @ . @ # # # # # @ . . * h m m c d @ : f h : . . . . . . ",
". . . . . . @ # @ . @ s c m l 6 2 * @ . # # * * * * * * # @ . @   . s O * * @ * * * * # . @ * , h c c c - @ : z h : .   . . . . ",
". . . .     # < 1 * # < z m m c z d * @ * 1 d h d h d h f : # # s d h d h f f 6 d h d * @ @ d h z c m c , @ : 9 6 : . . . . . . ",
". . . .     : 6 6 : # < z m m c n z : @ 2 h m m c c m c n - # * d c m m l z l n l n h : @ : h n m m m z 2 @ @ 3 d & .   . . . . ",
". . . .     : 6 z : @ - c m m m n h : @ , h m m m m m m l < # * h m m m l l n n m m l , @ : z n m c m c 2 @ @ * # @ . . . . . . ",
". . . .     s 6 f : @ , z c z c 6 6 : @ : h c c c c c c 9 s # # d z c c z c 6 9 c c 6 : @ : 6 9 c c c z , @ . @ # # . . . . . . ",
". . . . . . , 6 6 : @ * s 3 , , < , # @ # , < 2 s s 3 2 , * # # : s s : - < 3 , s , , # @ # , 2 s s 2 , # . # : , @ .   . . . . ",
". . . . . . : 6 6 : . . # # @ @ # @ . . @ @ @ # # . . @ . @ X . @ # @ @ @ @ # @ @ @ @ @ . . @ . # . # # . @ * h 1 * .   . . . . ",
". . . . . . @ < 1 < * # . # @ : * : * : * : : : # @ . @ : : : : : : : * @ . # * : : * : : # . @ # : : : : : 2 s 1 * .   . . . . ",
". . . . . . @ # : s 3 : # * d 6 z h z h 6 6 h h 3 * @ : 3 9 h 6 d h h h , # # < h h 6 6 6 , # # s h h d 6 6 < : # @ . . . . . . ",
". . . . . .     # 1 3 2 @ * 3 9 6 6 6 6 6 h z h 3 # @ , 3 6 6 6 h h h d , @ @ 1 h z h z h 2 @ @ < h 6 6 6 6 1 # .           . . ",
". . . . . .     @ * * @   @ * : : : : : : : : : : @ . @ : , : : : : , : @ @ # * : : : : : @ . @ * : : : : , * .             . . ",
". . . . . . . . . . . . . . . .   . @ . . . . . . . . . . @ . @ . . . . X . . X . . . . . . . . . . . . . . . . X X   X . . . . ",
". . . . . . . . . .     . . . .         . . . . . X .     .     . . . . . X X . . . . . .   . . . . . . . . . . X   X   . . . . ",
". . . . . . . . . . . . . . . . . . . . . . . . . X     . . . . . . . .         . . . . . . . . . . . . . . . . . . . . . . . . ",
". . . . . . . . . . . . . . . . . . . . . . . . X .     . . . . . . . .         . . . . . . . . . . . . . . . . . . . . . . . . ",
". . . . . . . . . . . . . . . . . . . . . . . . . .     . . . . . . . . . . . . . . . . . . . . . . . . . . . . . . . . . . . . ",
". . . . . . . . . . . . . . . . . . . . . . . . . .     . . . . . . . . . . . . . . . . . . . . . . . . . . . . . . . . . . . . "
};
