/* XPM */
static char *_faf07a70ee9496f8264c0a16e401162iPEh0AksL2GzUP64[] = {
/* columns rows colors chars-per-pixel */
"64 64 120 2 ",
"   c #303A1C",
".  c #323D1E",
"X  c #343E1F",
"o  c #343F20",
"O  c #374122",
"+  c #384223",
"@  c #3A4324",
"#  c #3C4425",
"$  c #3F4628",
"%  c #404729",
"&  c #41492A",
"*  c #444B2C",
"=  c #464D2E",
"-  c #474E30",
";  c #4A4F31",
":  c #4B5032",
">  c #4D5133",
",  c #4E5234",
"<  c #505335",
"1  c #525537",
"2  c #535638",
"3  c #545739",
"4  c #56583A",
"5  c #575A3C",
"6  c #585B3D",
"7  c #5A5C3E",
"8  c #5D5D3F",
"9  c #60613E",
"0  c #5F5F41",
"q  c #5F6042",
"w  c #606042",
"e  c #636344",
"r  c #636444",
"t  c #646445",
"y  c #696A45",
"u  c #6C6B49",
"i  c #6E6E4A",
"p  c #6E6D4E",
"a  c #74744E",
"s  c #6F7050",
"d  c #7D7B56",
"f  c #837E55",
"g  c #817F5D",
"h  c #85835E",
"j  c #898764",
"k  c #8D8862",
"l  c #8B8864",
"z  c #948D63",
"x  c #978F65",
"c  c #918E6A",
"v  c #9B9165",
"b  c #9D9367",
"n  c #97936E",
"m  c #9A9368",
"M  c #9F966A",
"N  c #9F986D",
"B  c #9A9670",
"V  c #A0966A",
"C  c #A39A6D",
"Z  c #A49B6E",
"A  c #AC9B6D",
"S  c #A39A70",
"D  c #A49B70",
"F  c #A59C70",
"G  c #A89E72",
"H  c #A7A077",
"J  c #ABA277",
"K  c #A9A278",
"L  c #ADA478",
"P  c #AFA77D",
"I  c #B0A072",
"U  c #B0A77C",
"Y  c #B0A97F",
"T  c #B4AB7F",
"R  c #D6A770",
"E  c #D8AC75",
"W  c #F8B274",
"Q  c #F8B677",
"!  c #FFB976",
"~  c #FFBB79",
"^  c #ADA780",
"/  c #B4AD83",
"(  c #B7B086",
")  c #BFB283",
"_  c #B9B084",
"`  c #BCB487",
"'  c #BBB388",
"]  c #BCB388",
"[  c #BCB489",
"{  c #BDB68C",
"}  c #C0B78B",
"|  c #C0B88B",
" . c #C6B98A",
".. c #C1BA8F",
"X. c #C2BB91",
"o. c #E1BF84",
"O. c #CDC598",
"+. c #D1C696",
"@. c #D2C99B",
"#. c #D4CA9A",
"$. c #D4CA9C",
"%. c #E4C68A",
"&. c #FBC983",
"*. c #FACF88",
"=. c #FFD387",
"-. c #FFD487",
";. c #FFD488",
":. c #FFDE8E",
">. c #E7D396",
",. c #EBD797",
"<. c #ECD797",
"1. c #E0D19B",
"2. c #E1D39D",
"3. c #EBD798",
"4. c #ECDA99",
"5. c #F8DB92",
"6. c #FBDF93",
"7. c #FCDF92",
"8. c #FDE193",
"9. c #FFE493",
/* pixels */
". . . . . . . . . . . . . . . . . . . . . . . . . . . . . . . . . . . . . . . . . . . . . . . . . . . . . . . . . . . . . . . . ",
". . . . . . . . . . . . . . . . . . . . . . . . . . . . . . . . . . . . . . . . . . . . . . . . . . . . . . . . . . . . . . . . ",
". . . . . . . . . . . . . . . . . . . . . . . . . . . . . . . . . . . . . . . . . . . . . . . . . . . . . . . . . . . . . . . . ",
". . . . . . . . . . . . . . . . . . . . . . . . . . . . . . . . . . . . . . . . . . . . . . . . . . . . . . . . . . . . . . . . ",
". . . . . . . . . . . . . . . . . . . . . . . . . . . . . . . . . . . . . . . . . . . . . . . . . . . . . . . . . . . . . . . . ",
". . . . . . . . . . . . . . . . . . . . . . . . . . . . . . . . . . . . . . . . . . . . . . . . . . . . . . . . . . . . . . . . ",
". . . . . . . . o # & & & & & # O o @ % & & & & & & $ + X O $ & & & & & & & # o o # & & & & & & & $ O X + $ # o . . . . . . . . ",
". . . . . . . . + ; 2 3 2 3 3 ; @ O = 1 3 2 2 2 3 3 < % O $ , 3 3 2 2 2 3 2 - + + - 2 3 2 2 2 3 3 , $ O & , ; + . . . . . . . . ",
". . . . . . o + & > 2 3 2 3 2 ; @ O = 1 3 2 2 2 2 3 , % o $ , 3 3 2 2 2 3 1 = + + = 2 3 2 2 2 3 3 , # o & , > & + o . . . . . . ",
". . . . . . # ; > = & % % % % # o . @ % & % % % % % # O . O $ & % % % % % $ @ . X # % & % % % % % # O . O $ = > ; # . . . . . . ",
". . . . . . $ , , $ X X O O O O O O X . o O O O O O O O O o . X O O O O O O O O O X . o O O O O O O O O . X & 2 2 & . . . . . . ",
". . . . . . + & & O . # = - = - ; * + . @ * - = = = = ; = $ o O % = = = = = - ; & O . # = - = = = = ; = # X % 3 3 & . . . . . . ",
". . . . . . X O o . O = 4 7 6 6 7 1 % O & 3 7 6 6 6 6 7 5 ; + # , 6 7 6 6 6 6 6 1 # O = 4 7 6 6 6 6 7 4 = O % 2 2 & . . . . . . ",
". . . . . . O $ # O O ; 7 0 0 0 q 5 & O = 6 w 0 0 0 0 w 0 > + # 1 0 w 0 0 0 w q 3 $ O ; 8 w 0 0 0 0 0 7 - O % 3 3 & . . . . . . ",
". . . . . . $ , , # O = 6 0 8 0 0 3 & O * 5 0 0 8 8 8 0 7 ; + # 1 8 0 8 8 8 0 0 2 $ O = 6 0 0 8 8 8 0 6 = O % 2 3 & . . . . . . ",
". . . . . . & 3 3 % O = 6 0 0 7 3 > # o $ > 1 1 < 1 1 1 , & O + = < 1 < 1 1 1 1 ; @ o % , 1 1 2 6 0 0 6 - O # ; ; # . . . . . . ",
". . . . . . & 3 2 % O = 7 q 0 3 = # o . O @ # # # # # # # O . . + # # # # # # # + o . O # # # = 3 0 q 7 ; O o @ @ O . . . . . . ",
". . . . . . & 2 2 % O & 1 5 3 > # . o + + + + + O . . o O + O O O O + O o . . O + + + + + o . # > 3 5 1 * O . O O o . . . . . . ",
". . . . . . & 2 2 % o + % & & # o o % ; > ; ; = % o   + * = = = = = = * +   o % = ; : > ; $ o o # & & % + X @ = = @ . . . . . . ",
". . . . . . & 2 2 & . . O O O o . + ; 6 7 7 0 w 7 = $ , w t r e e r t w , $ = 7 w 0 7 7 6 ; + . o O O O . . % 1 1 % . . . . . . ",
". . . . . . & 3 3 & o @ & = * $ O + > 7 7 7 p j l a y d c n n n n n n c d y a l j p 7 7 7 > + O $ * = & @ o & 3 3 & . . . . . . ",
". . . . . . & 2 1 % O * 3 6 5 > @ + ; 7 7 q g ^ ( N z H { X.X.....X.X.{ H z N ( ^ g q 7 7 ; + @ > 5 6 3 * O % 2 2 & . . . . . . ",
". . . . . . # - = @ O ; 7 w 0 1 # + ; 0 p g B / _ G V L ` ..| } [ [ } ` L V G _ / B g p 0 ; + # 1 0 w 7 - O % 2 2 & . . . . . . ",
". . . . . . o + + . O ; 6 0 0 1 # + = w j ^ / J C b v M D F F F F F F D M v b C J / ^ j w = + # 1 0 0 6 = O % 2 2 & . . . . . . ",
". . . . . . o + + . O ; 6 0 8 < # O % 7 l ( _ C v M D F C M v v M C S C D D M v C _ ( l 7 % O # < 8 0 6 = O % 2 3 & . . . . . . ",
". . . . . . # - = @ O = 6 0 8 1 # . o = a N G b M U ] [ _ K m M P _ ' _ [ ' U M b G N a = o . # 1 8 0 6 = O % 3 3 & . . . . . . ",
". . . . . . & 2 1 $ O = 6 0 8 1 # .   $ y z V v D ' O.$.+.) A I  .@.#.@.@.O.' D v V z y $   . # 1 8 0 6 = O # , < $ . . . . . . ",
". . . . . . & 3 3 % O - 7 w 0 1 # o + , d H L M D [ @.2.>.o.R E %.,.4.3.1.@.[ D M L H d , + o # 1 0 w 7 ; O O % % + . . . . . . ",
". . . . . . & 2 2 % O = 5 0 7 , # O * w c { ` D C _ @.3.5.&.W Q *.7.8.6.3.@._ C D ` { c w * O # , 7 0 5 = O . o O X . . . . . . ",
". . . . . . & 2 2 % o # ; > ; & O + = t n X.} F S ' #.4.8.;.~ ! -.9.9.8.<.@._ C F | X.n t = + O & ; > ; $ o O $ $ O . . . . . . ",
". . . . . . & 2 2 & . X + + + O . O = r n X.[ F C _ @.3.7.:.9.9.9.9.9.7.,.@._ C F [ X.n r = O . O + + + o . $ , , $ . . . . . . ",
". . . . . . & 3 3 & X O # # # + . O = e n ..[ F M P  .%.*.;.9.9.9.9.8.6.,.@._ C F [ ..n e = O . + # # # O X & 3 3 & . . . . . . ",
". . . . . . & 3 3 % O % , 1 1 = + O = e n ..} F v M I E Q ! 9.9.9.9.9.6.,.@._ C F [ ..n e = O + = 1 1 , % O % 3 3 & . . . . . . ",
". . . . . . $ , , # O = 6 0 8 < # O * e n ..} F v m A R W ~ 9.9.9.9.:.7.,.@._ C F [ ..n e * O # < 8 0 6 = O % 2 2 & . . . . . . ",
". . . . . . O $ # O O ; 7 w 0 1 # O * e n ..[ F M K ) o.&.;.:.;.! ~ =.8.4.@._ C F [ ..n e * O # 1 0 w 7 = O % 2 2 & . . . . . . ",
". . . . . . X O o . O ; 6 0 8 < # O * e n ..[ F C _ +.>.5.8.7.*.Q W &.5.3.@._ C F [ ..n e * O # < 8 0 6 = O % 2 2 & . . . . . . ",
". . . . . . + % % O O - 6 0 8 < # + = t n X.} F D [ $.2.3.4.3.%.E R o.>.2.@.' S F } X.n t = + # < 8 0 6 = O % 3 3 & . . . . . . ",
". . . . . . $ < , # O = 6 0 8 < # O * e n ..[ F C _ O.@.@.#.@. .I A ) +.$.O._ C F [ ..n e * O # < 8 0 6 = O $ 1 2 & . . . . . . ",
". . . . . . & 3 3 % O = 6 w 0 1 # o # 4 h Y T V M L ' [ _ ' _ P M m K _ [ ] L M V T Y h 4 # o # 1 0 w 6 - O @ = - # . . . . . . ",
". . . . . . & 3 2 % O = 6 q 0 1 # . . & i m Z b v V D D C S C M v v M C F D V v b Z m i & . . # 1 0 q 6 ; O . + + o . . . . . . ",
". . . . . . & 2 2 % O & 1 3 2 ; @ . . % 9 f x C C M v M D F F F F F F D M v M C C x f 9 % . . @ ; 2 3 1 & O X + + o . . . . . . ",
". . . . . . & 2 2 % X O # $ $ @ o O % , 8 u k Y _ G V L ` } [ [ } | ..` L V G _ Y k u 8 , % O o @ $ $ # O X # = - # . . . . . . ",
". . . . . . & 2 2 & . . O O O o . + : 6 6 0 g ^ ( N z H { X.X.....X.X.{ H z N ( ^ g 0 6 6 : + . o O O O . . % 2 2 & . . . . . . ",
". . . . . . & 3 3 & o # = ; = % O + > 0 0 0 s j l a y d c n n n n n n c d y a l j s 0 0 0 > + O % = ; = # o & 3 3 & . . . . . . ",
". . . . . . % 1 1 $ O = 4 8 6 , # + ; 6 7 7 0 w 7 = $ , w t r e e r t w , $ = 7 w 0 7 7 6 ; + # , 6 8 4 = O % 2 2 & . . . . . . ",
". . . . . . @ = * + O ; 7 w 0 1 # o $ ; > ; ; = % o   + * = = = = = = * +   o % = ; ; > ; $ o # 1 0 w 7 - O % 2 2 & . . . . . . ",
". . . . . . o O O . O ; 6 0 0 1 # . o + + + + + O . . o O + O O O O + O o . . O + + + + + o . # 1 0 0 6 = O % 2 2 & . . . . . . ",
". . . . . . O @ @ o O ; 6 0 8 2 = # o . O @ # # # # # # # O . . + # # # # # # # # # @ O . o # = 2 8 0 6 = O % 3 3 & . . . . . . ",
". . . . . . # ; ; # O = 6 0 8 6 3 > # o $ > 1 1 < 1 1 1 , & O + = < 1 < 1 1 1 < 1 1 > $ o # > 3 6 8 0 6 = O % 3 3 & . . . . . . ",
". . . . . . & 3 2 % O = 6 0 8 0 0 3 & O * 5 0 0 8 8 8 0 7 ; + # 1 8 0 8 8 8 8 8 0 0 5 * O & 3 0 0 8 0 6 = O # , , $ . . . . . . ",
". . . . . . & 3 3 % O - 7 0 0 0 q 5 & O = 6 w 0 0 0 0 w 0 > + # 1 0 w 0 0 0 0 0 0 w 6 = O & 5 q 0 0 0 7 ; O O # $ O . . . . . . ",
". . . . . . & 2 2 % O = 4 7 6 6 7 1 % O & 3 7 6 6 6 6 7 5 ; + # , 6 7 6 6 6 6 6 6 7 3 & O % 1 7 6 6 7 4 = O . o O X . . . . . . ",
". . . . . . & 3 3 % X # = ; = = = & + . @ * - = = - ; ; = # X O % = = = - ; - = = - * @ . + * ; - = - = # . O & & + . . . . . . ",
". . . . . . & 2 2 & X . O O O O O O o . o O O O O O O O O o . X O O O O O O O O O O O o . X O O O O O O X X $ , , $ . . . . . . ",
". . . . . . # ; > = $ O . O # % % % % & % % % % # o . + $ & & % % % % $ + . o # % % % & % @ . o # % % % % & = > ; # . . . . . . ",
". . . . . . o + & > , & o # , 3 2 2 2 2 2 2 3 3 > # O & 1 3 3 2 2 2 3 1 & O # > 3 3 2 3 1 = O @ ; 2 3 2 3 2 > & + o . . . . . . ",
". . . . . . . . + ; , & O $ , 3 3 2 2 2 2 2 3 3 > # O & 1 3 3 2 2 3 3 1 & O # > 3 3 2 3 1 = O @ ; 3 3 2 3 2 ; + . . . . . . . . ",
". . . . . . . . o # $ + X O $ & & & & & & & & & # O X + % & & & & & & % + X O # & & & & % @ o O # & & & & & # o . . . . . . . . ",
". . . . . . . . . . . . . . . . . . . . . . . . . . . . . . . . . . . . . . . . . . . . . . . . . . . . . . . . . . . . . . . . ",
". . . . . . . . . . . . . . . . . . . . . . . . . . . . . . . . . . . . . . . . . . . . . . . . . . . . . . . . . . . . . . . . ",
". . . . . . . . . . . . . . . . . . . . . . . . . . . . . . . . . . . . . . . . . . . . . . . . . . . . . . . . . . . . . . . . ",
". . . . . . . . . . . . . . . . . . . . . . . . . . . . . . . . . . . . . . . . . . . . . . . . . . . . . . . . . . . . . . . . ",
". . . . . . . . . . . . . . . . . . . . . . . . . . . . . . . . . . . . . . . . . . . . . . . . . . . . . . . . . . . . . . . . ",
". . . . . . . . . . . . . . . . . . . . . . . . . . . . . . . . . . . . . . . . . . . . . . . . . . . . . . . . . . . . . . . . "
};
